<svg width="20" height="20" viewBox="0 0 20 20" fill="none" xmlns="http://www.w3.org/2000/svg">
<rect width="20" height="20" rx="10" fill="#39344A"/>
<path fill-rule="evenodd" clip-rule="evenodd" d="M9.98348 3.00854L10.0168 3.00854C11.7718 3.01262 13.3752 3.66182 14.6016 4.7313C14.6886 4.80708 14.6335 4.94616 14.5181 4.94616L5.48208 4.94616C5.36672 4.94616 5.31168 4.80708 5.39858 4.7313C6.62508 3.66182 8.22841 3.01262 9.98348 3.00854Z" fill="white" fill-opacity="0.98"/>
<path fill-rule="evenodd" clip-rule="evenodd" d="M7.27729 11.9033C7.22721 11.8319 7.14657 11.7871 7.05934 11.7871L3.43867 11.7871C3.33378 11.7871 3.2573 11.8864 3.28706 11.9869C4.1443 14.8802 6.82546 16.9912 10.0003 16.9912C13.175 16.9912 15.8562 14.8802 16.7134 11.9869C16.7432 11.8864 16.6667 11.7871 16.5618 11.7871L12.9412 11.7871C12.854 11.7871 12.7733 11.8319 12.7233 11.9033C12.1222 12.7594 11.1267 13.319 10.0003 13.319C8.8739 13.319 7.87839 12.7594 7.27729 11.9033Z" fill="white" fill-opacity="0.98"/>
<path fill-rule="evenodd" clip-rule="evenodd" d="M12.6361 7.97732C12.7001 8.06044 12.7976 8.11257 12.9026 8.11257L16.5313 8.11257C16.6372 8.11257 16.7139 8.01164 16.6823 7.91071C16.4081 7.0345 15.9658 6.23241 15.3933 5.54206C15.3457 5.48459 15.2745 5.45215 15.1998 5.45215L4.80004 5.45215C4.72533 5.45215 4.65415 5.48459 4.6065 5.54205C4.03397 6.23241 3.59176 7.0345 3.31754 7.91071C3.28596 8.01164 3.36262 8.11257 3.46849 8.11257L7.09724 8.11257C7.20223 8.11257 7.2997 8.06044 7.3637 7.97732C7.97129 7.18814 8.92614 6.67953 9.99991 6.67953C11.0737 6.67953 12.0285 7.18814 12.6361 7.97732Z" fill="white" fill-opacity="0.98"/>
<path fill-rule="evenodd" clip-rule="evenodd" d="M13.2114 11.2818C13.1428 11.2818 13.0963 11.212 13.1199 11.1478C13.2516 10.7904 13.3236 10.4041 13.3236 10.0011C13.3236 9.56168 13.2381 9.14223 13.0828 8.75841C13.0567 8.69368 13.1033 8.62134 13.1732 8.62134L16.7327 8.62134C16.8089 8.62134 16.8747 8.67503 16.8883 8.74995C16.9617 9.15592 17 9.57407 17 10.0012C17 10.3928 16.9678 10.7768 16.9058 11.1509C16.8933 11.2269 16.8269 11.2818 16.7498 11.2818L13.2114 11.2818ZM6.88014 11.1478C6.90381 11.212 6.85724 11.2818 6.7887 11.2818L3.25022 11.2818C3.17313 11.2818 3.10681 11.2269 3.09422 11.1509C3.03226 10.7768 3.00003 10.3928 3.00003 10.0012C3.00003 9.57407 3.03837 9.15592 3.11181 8.74995C3.12536 8.67503 3.19119 8.62134 3.26741 8.62134L6.82687 8.62134C6.89676 8.62134 6.94339 8.69368 6.91722 8.75841C6.76198 9.14223 6.67651 9.56168 6.67651 10.0011C6.67651 10.4041 6.74842 10.7904 6.88014 11.1478Z" fill="white" fill-opacity="0.98"/>
</svg>
